PathFileType	4	(X/Y/Z)	C:/Users/beibeiliu/ov580/test_trc\sequence.29_training_dense_left.trc
DataRate	CameraRate	NumFrames	NumMarkers	Units	OrigDataRate	OrigDataStartFrame	OrigNumFrames
120	120	16	19	mm	120	248	396
Frame#	Time	ThumbCMC			ThumbMCP			ThumbIP			ThumbTip			IndexMCP			IndexPIP			IndexTip			MiddleMCP			MiddlePIP			MiddleTip			RingMCP			RingPIP			RingTip			PinkyMCP			PinkyPIP			PinkyTip			BackHand1			BackHand2			BackHand3	
		X0	Y0	Z0	X1	Y1	Z1	X2	Y2	Z2	X3	Y3	Z3	X4	Y4	Z4	X5	Y5	Z5	X6	Y6	Z6	X7	Y7	Z7	X8	Y8	Z8	X9	Y9	Z9	X10	Y10	Z10	X11	Y11	Z11	X12	Y12	Z12	X13	Y13	Z13	X14	Y14	Z14	X15	Y15	Z15	X16	Y16	Z16	X17	Y17	Z17	X18	Y18	Z18	
247	2.05833	-215.742	71.5037	36.3589	-201.485	75.2754	18.2946	-193.889	82.0954	-4.24577	-185.884	88.3296	-14.6829	-190.786	37.3087	-17.9807	-172.341	23.8851	-1.63126	-182.366	37.5643	23.4197	-198.355	18.6497	-11.7657	-177.788	11.6824	7.49189	-192.587	31.2521	31.157	-211.918	3.95514	-7.0666	-188.669	-0.182432	10.9785	-198.951	18.6769	30.623	-237.874	-3.89232	0.328724	-222.788	-17.6664	-13.6981	-199.671	-21.9418	-13.894	-247.036	31.2682	14.6466	-254.484	44.596	37.7991	-239.19	60.1185	23.5464	
248	2.06667	-209.432	69.6284	34.6808	-195.657	71.2246	16.9596	-186.059	74.0419	-2.05273	-176.768	78.4456	-19.0115	-192.691	28.1043	-16.129	-171.453	14.7452	-1.28674	-182.628	27.4397	23.8921	-200.615	9.31013	-10.6641	-175.908	3.84332	9.04394	-185.851	21.8343	31.2855	-211.089	-0.601635	-5.12097	-187.963	-3.83924	10.8714	-194.509	13.9936	29.9357	-235.1	-7.76773	2.20236	-214.543	-21.4928	-4.06118	-193.851	-12.2655	12.3332	-242.793	30.7097	14.3726	-251.803	45.8103	37.0181	-232.907	56.3607	22.8565	
249	2.075	-206.409	63.8689	31.5944	-191.327	64.8038	14.4574	-180.68	65.6919	-7.60192	-170.095	69.6365	-18.4197	-189.048	17.216	-16.9575	-172.092	5.41195	-1.92746	-178.959	21.4484	22.6779	-200.279	3.79995	-9.61932	-179.372	-7.32379	8.96417	-188.525	13.6513	33.33	-210.387	-8.29535	-1.42044	-188.541	-9.9807	18.4572	-199.565	12.1034	34.1138	-228.215	-14.7289	2.85724	-206.552	-24.4308	9.25724	-199.856	-5.14063	27.9272	-245.961	24.5536	15.1858	-248.189	41.448	37.9321	-230.268	55.271	21.2132	
250	2.08333	-206.732	54.9305	30.7559	-187.446	58.131	12.2103	-177.861	56.26	-8.38584	-168.515	58.8917	-18.5537	-186.939	13.0523	-17.5311	-172.65	-4.049	0.200292	-182.63	17.4957	25.371	-196.448	-7.39003	-7.99973	-176.831	-11.3317	12.0053	-186.09	7.52111	34.5085	-207.669	-12.8844	1.89853	-190.529	-16.7382	24.2316	-197.139	5.99159	37.3964	-223.848	-19.5781	8.47572	-202.831	-23.5864	21.6002	-207.092	-1.74363	33.6261	-241.918	22.7812	14.6716	-246.88	37.8116	37.436	-229.279	47.0871	20.6303	
251	2.09167	-202.797	54.2046	30.7595	-185.889	51.9063	13.5938	-175.775	48.0327	-8.06479	-167.213	49.1092	-23.7464	-186.73	2.33631	-14.8904	-171.162	-8.43819	4.25031	-178.792	10.6699	24.1407	-195.271	-11.2818	-5.86511	-178.388	-18.8766	15.1626	-185.598	4.49768	35.7156	-205.087	-21.7984	6.13992	-187.948	-18.5249	26.4969	-199.217	4.12934	40.6736	-221.741	-23.7376	14.1247	-201.996	-24.096	29.0635	-215.493	1.29822	32.4419	-240.095	16.794	13.0692	-247.227	34.7543	36.6915	-230.553	40.8819	17.6927	
252	2.1	-202.65	46.9376	30.2265	-183.881	46.2272	7.26391	-173.846	42.9201	-8.48937	-162.947	43.4776	-22.7889	-187.924	-2.14178	-14.1156	-172.89	-15.322	8.90004	-181.572	6.90487	26.6258	-196.173	-20.3496	-2.66057	-177.496	-23.5109	17.5674	-186.356	4.66333	36.9287	-206.504	-26.142	9.30123	-189.786	-24.0778	28.2373	-198.871	-1.39889	43.3093	-220.711	-33.6012	20.0957	-203.188	-21.7968	32.7686	-218.491	-2.87498	29.1033	-239.182	12.4384	16.6431	-245.698	31.6025	35.9312	-227.436	37.9708	16.5268	
253	2.10833	-197.672	45.3783	29.6844	-183.199	38.0654	10.2719	-171.299	37.1024	-9.84034	-160.158	38.5096	-23.0955	-189.126	-13.969	-10.2876	-171.555	-21.6095	7.79303	-177.547	1.65054	27.6381	-195.97	-25.8069	-0.085981	-177.888	-29.9117	19.4077	-186.093	-3.23853	38.4552	-206.558	-33.655	14.0673	-192.087	-28.6386	34.4454	-201.787	-1.48686	43.2251	-221.739	-37.155	22.1447	-205.352	-25.8329	35.7646	-220.529	-6.819	32.8717	-240.334	5.99448	15.0635	-245.478	25.6915	34.5748	-222.261	32.9034	15.7307	
254	2.11667	-199.098	36.8351	25.7368	-180.183	35.7142	7.8825	-170.66	31.0415	-8.62603	-159.783	29.994	-25.9191	-187.757	-15.8126	-9.83053	-171.303	-25.8139	10.8676	-180.579	-0.993359	28.8013	-201.867	-29.367	1.0462	-179.858	-35.3845	22.5773	-187.109	-3.99736	40.1934	-210.157	-36.4995	14.2597	-190.667	-29.7605	35.5628	-202.313	-5.54	43.8674	-225.235	-41.2803	24.3951	-205.886	-33.0996	34.6763	-221.548	-12.1943	29.4059	-238.857	3.9523	16.0436	-241.741	23.4419	36.5098	-222.354	30.2351	17.9631	
255	2.125	-197.83	32.3803	26.2741	-180.331	30.4065	9.80927	-168.684	26.3171	-9.02093	-158.929	23.2297	-25.7566	-189.203	-20.8592	-8.95924	-174.031	-31.5514	15.2417	-180.58	-9.1401	31.5592	-196.998	-32.6966	1.39599	-183.159	-40.3993	24.1903	-188.189	-11.5455	42.0133	-209.585	-38.1932	13.9131	-193.169	-34.8039	38.4365	-200.461	-6.98782	43.1272	-224.356	-44.6217	22.4112	-208.795	-40.1775	37.8465	-222.587	-15.9001	32.7605	-237.762	1.62531	17.4394	-240.959	22.7103	36.2783	-223.993	26.6847	19.0135	
256	2.13333	-194.216	33.628	27.996	-177.147	27.7906	9.09827	-170.106	19.1304	-9.50172	-156.508	20.7655	-26.5053	-187.675	-21.7906	-8.30266	-170.573	-32.0409	15.7227	-180.604	-8.93579	31.2896	-202.561	-36.6575	4.08232	-182.807	-43.4531	25.9259	-186.269	-14.7593	42.0456	-207.52	-41.9525	16.0756	-193.085	-38.6067	37.2611	-199.822	-12.052	43.3427	-227.803	-45.204	22.591	-206.047	-42.3728	32.6997	-216.73	-19.0463	32.7399	-237.456	-0.818588	18.159	-240.737	22.3745	35.6026	-223.359	24.5153	18.733	
257	2.14167	-190.998	32.4773	28.3064	-175.473	25.6924	7.98593	-168.451	17.4549	-7.02543	-156.482	15.3514	-23.7568	-183.735	-27.7427	-7.73711	-174.259	-35.3353	17.6492	-180.444	-13.0049	31.0875	-196.568	-37.6866	1.14436	-182.212	-42.3837	29.51	-185.436	-13.6903	39.6025	-211.5	-41.804	14.052	-193.105	-41.88	36.1949	-196.258	-14.38	41.4929	-227.323	-45.6693	22.4196	-206.931	-43.6186	33.5706	-216.276	-19.3851	35.3337	-235.336	-2.35856	17.2031	-240.273	21.4088	36.212	-219.866	19.1855	15.4546	
258	2.15	-191.796	29.1711	27.9325	-175.891	22.6231	13.726	-162.657	18.8371	-9.66976	-154.696	16.1044	-22.0728	-185.203	-28.1767	-6.57737	-172.766	-37.916	15.6385	-178.145	-13.8627	31.0539	-199.631	-40.4969	3.24093	-178.945	-42.6296	27.6146	-189.908	-14.252	39.7066	-207.331	-44.6415	15.3894	-189.182	-40.2177	35.4764	-199.68	-12.7019	43.3264	-224.185	-47.6761	19.8135	-205.751	-45.3276	35.478	-213.382	-23.8545	34.2491	-237.231	-1.98133	19.3189	-236.826	20.3653	34.293	-218.626	20.0467	17.2914	
259	2.15833	-189.726	27.509	25.347	-173.227	21.8363	10.0802	-163.745	14.9637	-11.0961	-150.457	15.3045	-22.2436	-186.731	-29.7346	-6.96895	-167.906	-38.299	12.3271	-174.508	-13.7441	29.9559	-198.058	-41.2337	2.51253	-180.185	-47.4266	24.9862	-186.202	-13.9563	37.8549	-208.318	-47.3154	17.06	-191.208	-44.2818	35.0616	-197.06	-14.14	40.5924	-226.909	-44.6827	20.1172	-207.716	-49.4154	34.7222	-214.018	-23.6033	31.4458	-238.959	-2.23711	20.7765	-236.507	19.1023	36.5671	-216.11	21.8836	14.1417	
260	2.16667	-191.232	25.8304	26.2592	-173.277	21.2267	9.43599	-163.287	14.3973	-8.80275	-152.151	11.9847	-19.8742	-185.968	-31.9099	-6.87845	-172.478	-40.8886	12.2766	-174.109	-14.1034	29.5872	-197.521	-40.5377	1.98704	-178.253	-47.7208	23.701	-183.478	-15.616	38.3663	-207.6	-44.1201	13.9855	-188.136	-44.7831	32.703	-195.371	-18.2486	41.907	-224.539	-51.355	19.9372	-205.755	-53.271	30.1037	-212.061	-24.1346	32.2706	-237.634	-4.76756	22.8049	-237.822	16.8308	38.4371	-219.676	18.0219	18.694	
261	2.175	-191.936	27.6478	29.4086	-172.963	20.1503	10.4535	-163.435	11.4935	-10.5449	-151.771	11.6334	-22.7589	-182.758	-28.5381	-10.0603	-166.596	-37.2805	11.6039	-176.622	-15.5112	29.5576	-196.355	-41.8814	1.14579	-178.51	-48.0389	25.0368	-182.907	-21.6163	39.7219	-208.922	-46.1781	15.2575	-188.085	-46.0424	36.3934	-192.859	-18.5448	41.6467	-227.523	-47.7245	19.9032	-206.817	-56.2201	27.6806	-207.57	-29.7196	32.832	-234.761	-7.53353	20.7973	-239.227	13.3719	38.2232	-216.911	21.4141	16.6471	
262	2.18333	-192.222	27.7828	28.5956	-176.15	17.3321	9.78666	-164.1	14.0231	-5.44884	-150.504	11.2561	-25.838	-186.253	-30.2324	-8.77399	-166.004	-35.8307	10.4767	-176.79	-13.7848	29.4438	-197.674	-39.2768	1.09747	-175.486	-47.4854	21.1483	-182.543	-20.1105	39.6751	-206.741	-47.6101	15.1799	-186.23	-45.0607	34.5799	-190.145	-19.7062	40.8385	-230.122	-50.9535	19.834	-206.332	-59.0364	26.5534	-198.685	-37.8892	33.9606	-233.849	-2.57448	22.3767	-239.323	16.3305	42.669	-219.92	18.589	20.5353	
